/* XPM */
static char *result[] = {
/* columns rows colors chars-per-pixel */
"96 96 39 1 ",
"  c #3F7861",
". c #437B60",
"X c #578B5F",
"o c #5C8E5F",
"O c #5B905F",
"+ c #65965E",
"@ c #69995E",
"# c #75A35E",
"$ c #7AA75E",
"% c #7FAB5D",
"& c #4A8160",
"* c #97B74F",
"= c #98B74E",
"- c #9AB84D",
"; c #88AF57",
": c #83AD5B",
"> c #8AAF5A",
", c #91AF5B",
"< c #8CB155",
"1 c #87B058",
"2 c #8AB058",
"3 c #93B552",
"4 c #9BB653",
"5 c #9EB850",
"6 c #94B15A",
"7 c #9CB259",
"8 c #A0B84F",
"9 c #A3B654",
"0 c #ACB756",
"q c #A4B851",
"w c #ACB853",
"e c #A3B459",
"r c #ACB558",
"t c #B2B757",
"y c #B4B856",
"u c #B9B857",
"i c #B2B758",
"p c #B6B858",
"a c #B9B858",
/* pixels */
"e>eq-ww-8w8---1%:=y67ue::;:;*-----8w-1>6:%>uuy,>0qqww-qw---*%%1qt<ey,::::;------w8*:>6%%7aa0>,tu",
"::------------33*-wqyy6:;=3*-------*-<:1<%:6q5:<------------33*5tqut>:3-3=---------1:<>%:qq6:3-q",
"*--------8-8---------8-=*-------------*--<:<--3----------8----------=*==-----------**-*2:*-*3---",
"-------------------*--=-33---*-------------*------4----------*--------33-------*----*-----------",
"-------------*--**--=--*::-;<----5---------**-----------------**-----;%3*;*--------------**-----",
"*33-*3*----*---3::3----;:::::3:1----------*::333*-*3*--------<11*----:%:;%;;:*--5-------<::-33*-",
"<%:<<%<*3--3<*-*;:;-=-*:%%::<::*-----------;%:<%:31:33*-*<<--*1%*---3%%:%;;::-----------*:%<:%23",
":3%::>6:1-*%%<13-;3;:;=;::;----------4----**1:<;%%:2<:<-1%121*<1<::*3:>:3*-*------8-----*31:<:%:",
"<-<%2rr333%%%%%1--<:%*---------3<---qyq-<**$;<3*;%6ye<*1:%%%%<--;%:*---------<*---wy-4<*<:1<-3::",
"*--3-qy8-<%%1%%1--3:3*-------qw3:6ww0a06%**::;--**-ww-*:%:::%<--;>*--------tq;%ewwwpq::*3%:3--3w",
"*--------*13*11*------q-yy---wue:6uyprre<--3:<---------*133:<------8-8yw---yy,:euuper76--<13---q",
"--------*---*--<;3---ytqyyy8-8yue4yye:,yq--*----------------*1<---qywwpuw--wyy7qii6:9y----------",
"---------43:1--1%:3-4r83>eyw---q0-4411*----------------*1:<-3%:;-*4r8;,0tq---wq-532<4-----------",
"---q8-q4<:%%%<*%::>3::33:>-----------------------w-8w3<::::<3%:%3<::-3:;-----------4-----*----q8",
"8-wuwwp011131:1%6e>::;--*3----**----<1--;:*-qw--yyqyy7::;3::::76:::3--**----*--*-412-311--wq-8uy",
"y-ww0pyw**--4r73ya9595-------1:1-33*3,>:%:<3qpw-wwyuyq3---qy,euuq87--------::<***-321::1<3wu88yy",
"8---qq8------yyquywyyw----08-1%::::-yr,e>:::3q----qq------qattuwwyy8---qw-*:%:::>qy777::::-q---8",
"--3:>3-------qw8t88w8-8yqyy8--1<;:38yyyy3::<----6:;--------qqqt8ww--w0qyw--3:<;:*qyyyw<::3----;:",
"<31%:3----------------q88w8----------qw------3<*:%>-----------------w8ww-----------ww------=<3%%",
"<11:<----**-*;**-----------3*---*;:3-*-------3:1::3-------<;--------*----*---**:;-**-------;:>;:",
"****----*%<*:%<*<3---<:;3-<:1*--*:%:;:--------****---*1:*3%%**<*---::<--::>---*%%;:<---------**-",
"---------:;<::**::<<;3:%14<::2323:%%%:-<13------------<:<;%<-<%:3<3<::<-:::;36<%%%:<-;;---------",
"---------*-<:<-*<::%:::%:r9266%%<;%%::;:%3-------------**<:*-*<::%::%%>05>7>%:*::::<;::*------**",
"-----------------*<<33<<<wu9i6:<<;%:3*313----------------**---**<<33<<6yyqi::<<:%:*3;;3---*--<::",
"*--3:---*------*;*--------8-84*---***-------**---<<---*------<;--------888q**--*33--------**-*:%",
":33::33::<-----*::*-------q--q---------<3***1%1*<%:*<:%*-----3%<--------q--8--------*3*3**:%<*:%",
"%::%::%%:*------*<-------wu0quw----<;-<%:::*<%%:%%::%%;------=33-------yyqwuq---*1<-;%:%;-:%::;%",
"%::%:::>***----------qy--yuu4ryw*--:%:*<%%%1*::1:%%11<-**----------ww-quur7iy---*%%<*:%%%*<%:<*%",
"<--<<<<**::----------8yywup7::q8---*<3--<<<*-<3-*<<<<-*:<----------wywyyy,:,w----3<3-*;;<-*<*--<",
"-----:%:<:*-----------8-qq41:<**-ww8-ww-----------*$%<;:*-----------8q88<::3--qww-8w8--8-------8",
"-8-8y,:;qq----------------**4---8uuywyyq<3--q--q-w0>:6q----------------***----qyuywyy-33-8q-88-y",
"wuwwui7wyy6<*11--*11-------------wyye,t6%:2yy8yywwur6yyq;*31<--3;;------------8yyy,7y>%:6uwqyyqy",
"qyuwyuyuy7%11%1**:::3<::3----------4:%::%%>yywwyywyytyt;:;:%;*3:%:3>::*---------q3::::%%3uywwyy0",
"-8wwww-qq*1%%%3*1%%:,>%%<----------*:;;;<1*8wq-qwwww-w-*::::-*:%::,>%:*----------1:<2<1<-qwq-ww-",
"--*-*-----31%1*-31%6ue:;4----4-----*3----------------*-->::;-*<::eu,:<------4----33-----------ww",
"3*--333----*-*----4yyq---------=*3-----------33*-**<*----*------qyy-4---------33----------*<3-w0",
"%1*31%2--*---------q8--------3;3:;-----=*1*-*::1*<%:3=-------*--8q8-------413<:3------3;--3%:65>",
"2762%%%3----*-**-*----------8,::>rq---3:1%:--:673;%::*------****---------q5>::6y----;>>%1-3:e6>%",
"1pue%<%%3----*11::3;<---qq8yate7iaq33-3%:1::1:7uy,::%:*----<:::;<<3---w8qyur7epp-;*-:%::::>%0ye>",
"3ww43-33*---*3%%:%:%:--1eyyye,e7u0;:;=*3**33*<40033-33*---*<:%%%::<-3>0yyy777eiq;:*-*3-*3333qurr",
"133:14---------1;;11---::w8qq::>=-3;-----*33*:2-1%<---------*;;<<<--*:2w-w6::1--;3-----3343:3y,>",
"%1::%2-----------------*<*---3<3---------<%12:%:1%13--------*--------3<----3<----------::::::>::",
",>1<623------------*---------------8yq-0y41%$:2:<221*-----------33---------------qt8w0-3;::7r%%%",
"re7wi-*----*------::****<--------qwquwwuy09766pe5tw----8-------*:>-3-<3--------wqwuqwuy5-36p41%%",
"tuyyyqw8-ww---*:33:::>3:%*;:<----yuwwyiuy0puiruutpwqw--w8---31*<%:>23%:*2:3--48uuwyyyyr0qy-533%%",
"tetu0uuqquw---;%:35:>ii:::%%<----8yy-9er>:7puurepywuy-wu8--*%%:-6:6y7%::%:3----wuq49ee:eyy6;6#++",
"6%45-8q--q----;::5yeey7%:<;<------88-1%>:%>iur>:5-5qq*q8----::<8y40y>::<:*------88*::>::7p7:#&  ",
"1<---*--------**--w8wy5:<------------31<3::>q323--8---------*---w8yw6:*------------<><1::ey,oo##",
"------------------*------*---------------*<3------5---------------*-----------------4:>;;3q>%:;:",
"--------5---5*---------*<<-*----------------------------------------**;3***----------3:=-=3;:*-3",
"----------*----*<*-----*%;*:;-3---4-------*<3*--*-5**--------3<3-----;%<<:**3*-------*--q-----3:",
"31<*-13-----**-*::<--**:%::%:::;----------*:%<3:3-3<*-----*-8<%1*---3:%::::::3-------wqwy3<-<:;3",
"<1%11%<3<--11***<%<****:%%::*<;------------*::<%%<1%323-31<*3*1%333-<%%::<*:<--------yuyu7:<;%:=",
"131%:66:1-<1%1%<-<<:%<-<<<*---------qq---**;;:<3%%17<%<*1%1113*3;::33<<<*---------q8--wq966e=*;*",
"3*31<yy4*<%%%%%1--<%1*-------88314--wyw-:<*%:<--<1*p03*1%%%%%<*-;:<----------<<-8-yy-3:4;%6at---",
"*--*-4w--3%11%%<--*1*----8---qw3%6yywuw<:*-:%>---*-qw551%11%%3--<<----q----yw;%9u0yyw::-3::7q-q8",
"------*---<*-3<*-4---8w-yyq--wy0>6yuy7er6---33----------<-*<3**----qqquy---ype:9uur7re5--3<=wqyt",
"-----------33--1:<--8yy4ryyw--wy04w06:608---------------*3*-311*-*quwwryy8-q0y0-w92%ew------w0qw",
"---------31::*-:%:3-3743:6qq---8q--4<3-----------------<1%1-6:%:**67-1:ew8---q8--4<3------------",
"---yq-y51%%::1<:::2<:%3*;>-----------3--**------8y8qw3::%::2<:::<1%2**:3-----------*--3*--8---tw",
"q-wywyyy2><-<6::ey6123-------*<*----<:33::3-0yq-yyquye113326:>rr<2<3-------***---->;3<::--yw-qaw",
"y-wwyp08-----yr4yywqy8-------;%:*1:-q7>:%:1;4yq-wwyyw8----qp49upqw08------*:::3:6-9,>::1;;qy8q0r",
"---335-------ypwyywy0q-888y8-<%::%:qur7i>:%:3----3--------qywwuwwyy8---wt-*:%::%1queee::::=8--*3",
"--<::4--------w-w-8w--wwwyt---<3*13-wyy04<<3---*>:>--4----4qqqq-qq--wwwyw--*<*<6-80yyq3<;*--=*;%",
";<:::*-------**-------8--q------***---8------*:<:%;---*-*--**-------8--8-------**--88------<;<:%",
"<<1;3---*<--<:<=-----*<*--3;3---*::<**------**<<<<*---<*--<:*------3<---62*---<::333-------31<<<",
"--------*%;<::**;<***<%:*-;::3-=*:%:::---------*------<%<<%:**;3---;%:--::14--<%%::1-*----------",
"---------<<;%:**:%;;13:%:-3::>;:*:%%$:*:%3-------*----*;*:%<-<$%;:;<::;81::2113:%:%<3::*--------",
"-----------*;*--*;%%:;%%:0y6e,::<:%%:<1%:*-------=-------3<*--*::%::%%>y93r>%1<1%%;<:::---------",
"----**-------=-**-****3**qyqy,>3*<:;-****--------===---------***3*-****0yqr1<331:<-*33---------*",
"**-;:*-33*-----*:<------=----==--*-*----*---*<***11=-<<------<:*----------5-*-------------<3**<:",
":<<%%*1%:;-----*;:*------8w88w-----*--31<<;-;%:*;%13;%:=---*-*:<-------qw-qq-----**-<131<*:%;*:%",
"%%%%%:%%1--------*----8--tutqat8---1:33%%::3<:%%%%%%%:3--*----**---88-8yuwwaq---*::*1%%%;*;$%::%",
":<;::1<3-3<----------wyqqyyt36yq---<%:*3:%%;-::3;%%3<3*<*-------*--0y-wyu96eu8--*:%<-<%:%**%;<::",
"*--**;:*3:;-----------wytyt6%:48--8-*4--*33*-*--**31;*<:<----------8yywtr>%<8--8--*4--******--*4",
"----8:$:3;*----=----------*:;*--8yy8-yy---------*8-$%<<1----------------<2<3--qpy88yw---*-----8y",
"8w8qye:60w4--=*=--**------------8yuu00uq::*8w-qw-wy,:40w-*-**-----------------qpuuqyy411-wqqw-0u",
"wyyqyp00yr:3*::*-311*433---------qyw6>e>:%>yywyywwuy0ype:*<:;--<:2-33*--4---5--w00>,e:%%6u0wyyyy",
"qwuyyy0yy3:::%;*3:%%<>:%<--4-------3:::%::<wuw8yyyyywy0<%:::<*<%%:6:::*----------<:::%%:4yywwyw-",
"--q88q-8-->%%%**1:%:e,%:3----------3:<3333--88--8888-8-*:%%:-*:%%>e>%:*----5-----<:6333*--q--8-q",
"----------*<<<--331eu9;3-----4*-------------------------3<1*-**<;tu3:*------------------------qy",
":<--<13-*----------yy---------**<<-------*---1;*-*<;*-----*-----wyw--------*-*>3------*---*;;-84",
":;3<%%;------------8---------1:<:6----***:<-4::>*;%%<---*------------------:1::4----**<:*-<%>7w;",
">056%%%;------3<3<*-*------qw7>:6pq3*-3%:%%*3:70q:%:%<-----*<*<3=--------ww6:>ey---->::::*;:iuy:",
",yue:<::<----*%%::111--*wwwyyrrruu51<8<11<::1:6uy3>;::*----1%::2;:;--40w0yirrray3:3-;:;>1<:7ye>@",
"3893*-------**1%%%:%<--:,y0y0:,,wq<13--*----*33q5<4-**-----31%%%::*83:eyyy7>>40q:;*-------377:@.",
"%<1::----------33333---1:5-q5>:;*-*3-----31<*::*:%<----------3<3<*--*::q-q3:1<*-3------;;32%%%X+",
"%:::%%*-----------------------3-----8--5-<:%:%%::%%;-----------------*-----4*-----q--8->%::%:%#:",
"7,<3e6*-----------*;---------------quwqtyq<::172367<------------<*---------------qyqwyy-;%::%::%",
"ryqyp---------*3**::3;33:*-3*---8wwqyywuyiy076urwuy----------*-3%:33=;;-***---8ywwpw0uyy006>:q0>",
"uyuyywy88yy---*1:-:::,4::;;%:----yuyqtppeeiuupppuuywy-8uq---<:<3::>66%:3::<---8yywwyyyeepya0-8ya",
"r,ryqyy88y8---1%:30,,ur:%:::*-----ww*3671%6pupe6y8wyy-wy---*:%14q:7a6%%:%;-----qyq-,,e%:eay-;<0u",
"2:3---8-------<:<-yqtu3::*<*---------1%>1%:rwq118----------*;;38tqyt>:>*<---------4::;:%,w4;:6-w",
"33----------------8888-6*-------------<332:2-*<*----------------88qq=3*=-----------*<-3::::::388",
"-------4----------------**-**-------------33----------8---------==--=-*=-----------8---4*3*ee5yu",
"----8qyy----------------::-<*---------------------------------------=*:;-<4--------yw88yw--8uuyu"
};
